<?xml version="1.0" encoding="UTF-8"?>
<svg id="Layer_2" data-name="Layer 2" xmlns="http://www.w3.org/2000/svg" viewBox="0 0 138.77 138.77">
  <defs>
    <style>
      .cls-1 {
        fill: #fff;
      }
    </style>
  </defs>
  <g id="Layer_3" data-name="Layer 3">
    <path class="cls-1" d="M138.77,69.38h0c0,2.78-2.25,5.04-5.04,5.04h-22.1c-20.55,0-37.21,16.66-37.21,37.21v22.1c0,2.78-2.25,5.04-5.04,5.04h0c-2.78,0-5.04-2.25-5.04-5.04v-22.1c0-20.55-16.66-37.21-37.21-37.21H5.04c-2.78,0-5.04-2.25-5.04-5.04h0c0-2.78,2.25-5.04,5.04-5.04h22.1c20.55,0,37.21-16.66,37.21-37.21V5.04c0-2.78,2.25-5.04,5.04-5.04h0c2.78,0,5.04,2.25,5.04,5.04v22.1c0,20.55,16.66,37.21,37.21,37.21h22.1c2.78,0,5.04,2.25,5.04,5.04Z"/>
  </g>
</svg>